<svg width="256" height="256" viewBox="0 0 256 256" fill="none" xmlns="http://www.w3.org/2000/svg">
<path d="M51.9833 128.495C51.9833 128.495 51.9833 205.004 128.493 205.004C205.002 205.004 205.002 128.495 205.002 128.495H51.9833ZM82.5276 113.788C73.6355 110.982 58.6566 104.624 47.1887 91.379C29.4216 70.8745 46.0071 41.5034 77.3675 56.2357C90.7736 34.371 124.038 42.464 119.618 68.9873C116.651 86.7545 103.508 102.456 95.7977 110.353C94.1248 112.104 91.9963 113.354 89.6518 113.961C87.3073 114.567 84.8399 114.507 82.5276 113.788ZM209.822 91.379C198.346 104.624 183.384 110.991 174.483 113.788C172.171 114.507 169.704 114.567 167.359 113.961C165.015 113.354 162.886 112.104 161.213 110.353C153.503 102.456 140.36 86.7545 137.393 68.9873C132.973 42.464 166.237 34.371 179.644 56.2357C211.012 41.5034 227.589 70.8745 209.822 91.379Z" fill="#00DC82"/>
<path d="M32.9666 38.5792C54.6443 15.0399 86.7952 0.979126 128.493 0.979126C170.19 0.979126 202.333 15.0399 224.002 38.5792C245.569 61.9996 256 93.9635 256 128.486C256 163.009 245.569 194.964 224.002 218.393C202.324 241.933 170.182 255.993 128.493 255.993C86.8037 255.993 54.6528 241.933 32.9751 218.393C11.3995 194.973 0.977173 163.009 0.977173 128.486C0.977173 93.9635 11.3995 61.9996 32.9666 38.5792ZM36.9706 55.6068C33.9685 59.7668 32.1101 64.6414 31.5809 69.7441C22.5953 86.5591 17.9793 106.622 17.9793 128.495C17.9793 159.694 27.3814 187.237 45.4801 206.883C63.4683 226.418 90.8162 239 128.484 239C166.152 239 193.5 226.418 211.489 206.883C229.587 187.237 238.989 159.702 238.989 128.495C238.989 106.681 234.399 86.6526 225.439 69.8631C224.926 64.7212 223.064 59.8061 220.041 55.6153C216.832 51.1741 212.393 47.7696 207.272 45.8221C189.335 28.735 163.322 17.9812 128.493 17.9812C93.6386 17.9812 67.6169 28.752 49.6712 45.8391C44.5812 47.7926 40.1623 51.1868 36.9706 55.6068Z" fill="#00DC82"/>
</svg>
